<svg width="32" height="32" viewBox="0 0 32 32" fill="none" xmlns="http://www.w3.org/2000/svg">
<path d="M15.9998 17.7333C15.8265 17.7333 15.6532 17.6933 15.4932 17.6L3.71984 10.7867C3.23984 10.5067 3.07982 9.89332 3.35982 9.41332C3.63982 8.93332 4.23982 8.7733 4.73315 9.0533L15.9998 15.5733L27.1998 9.09334C27.6798 8.81334 28.2932 8.9867 28.5732 9.45336C28.8532 9.93336 28.6798 10.5467 28.2132 10.8267L16.5199 17.6C16.3465 17.68 16.1732 17.7333 15.9998 17.7333Z" fill="#6A6A6A"/>
<path d="M16 29.8134C15.4533 29.8134 15 29.36 15 28.8134V16.72C15 16.1734 15.4533 15.72 16 15.72C16.5467 15.72 17 16.1734 17 16.72V28.8134C17 29.36 16.5467 29.8134 16 29.8134Z" fill="#6A6A6A"/>
<path d="M16.0002 30.3333C14.8269 30.3333 13.6669 30.08 12.7469 29.5733L5.62687 25.6134C3.69354 24.5467 2.18689 21.9734 2.18689 19.76V12.2267C2.18689 10.0133 3.69354 7.45338 5.62687 6.37338L12.7469 2.42669C14.5735 1.41335 17.4269 1.41335 19.2535 2.42669L26.3735 6.38665C28.3069 7.45331 29.8135 10.0267 29.8135 12.24V19.7734C29.8135 21.9867 28.3069 24.5466 26.3735 25.6266L19.2535 29.5733C18.3335 30.08 17.1735 30.3333 16.0002 30.3333ZM16.0002 3.66668C15.1602 3.66668 14.3335 3.84002 13.7202 4.17335L6.60022 8.13331C5.32022 8.85331 4.18689 10.76 4.18689 12.24V19.7734C4.18689 21.24 5.32022 23.16 6.60022 23.88L13.7202 27.84C14.9335 28.52 17.0669 28.52 18.2802 27.84L25.4002 23.88C26.6802 23.16 27.8135 21.2534 27.8135 19.7734V12.24C27.8135 10.7733 26.6802 8.85331 25.4002 8.13331L18.2802 4.17335C17.6669 3.84002 16.8402 3.66668 16.0002 3.66668Z" fill="#6A6A6A"/>
<path d="M22.6669 18.6534C22.1203 18.6534 21.6669 18.2001 21.6669 17.6534V13.3601L9.50695 6.34678C9.02695 6.06678 8.86693 5.45342 9.14693 4.98675C9.42693 4.50675 10.027 4.34672 10.507 4.62672L23.1603 11.9334C23.4669 12.1068 23.6669 12.4401 23.6669 12.8001V17.6801C23.6669 18.2001 23.2136 18.6534 22.6669 18.6534Z" fill="#6A6A6A"/>
</svg>
