<svg width="32" height="32" viewBox="0 0 32 32" fill="none" xmlns="http://www.w3.org/2000/svg">
<path d="M29.3333 12.3333H2.66663C2.11996 12.3333 1.66663 11.88 1.66663 11.3333C1.66663 10.7866 2.11996 10.3333 2.66663 10.3333H29.3333C29.88 10.3333 30.3333 10.7866 30.3333 11.3333C30.3333 11.88 29.88 12.3333 29.3333 12.3333Z" fill="#6A6A6A"/>
<path d="M10.6667 23H8C7.45333 23 7 22.5467 7 22C7 21.4533 7.45333 21 8 21H10.6667C11.2133 21 11.6667 21.4533 11.6667 22C11.6667 22.5467 11.2133 23 10.6667 23Z" fill="#6A6A6A"/>
<path d="M19.3333 23H14C13.4533 23 13 22.5467 13 22C13 21.4533 13.4533 21 14 21H19.3333C19.88 21 20.3333 21.4533 20.3333 22C20.3333 22.5467 19.88 23 19.3333 23Z" fill="#6A6A6A"/>
<path d="M23.4133 28.3334H8.58663C3.27996 28.3334 1.66663 26.7334 1.66663 21.48V10.52C1.66663 5.26669 3.27996 3.66669 8.58663 3.66669H23.4C28.7066 3.66669 30.32 5.26669 30.32 10.52V21.4667C30.3333 26.7334 28.72 28.3334 23.4133 28.3334ZM8.58663 5.66669C4.39996 5.66669 3.66663 6.38669 3.66663 10.52V21.4667C3.66663 25.6 4.39996 26.32 8.58663 26.32H23.4C27.5866 26.32 28.32 25.6 28.32 21.4667V10.52C28.32 6.38669 27.5866 5.66669 23.4 5.66669H8.58663Z" fill="#6A6A6A"/>
</svg>
