<svg width="32" height="32" viewBox="0 0 32 32" fill="none" xmlns="http://www.w3.org/2000/svg">
<path d="M17.3331 19.6667H15.9997C15.4531 19.6667 14.9997 19.2134 14.9997 18.6667C14.9997 18.12 15.4531 17.6667 15.9997 17.6667H17.3331C18.2531 17.6667 18.9997 16.92 18.9997 16V3.66669H7.99974C6.42641 3.66669 4.98638 4.52 4.21304 5.89333C3.94638 6.37333 3.3331 6.54672 2.8531 6.28005C2.3731 6.01338 2.19971 5.40002 2.46638 4.92002C3.58638 2.92002 5.70641 1.66669 7.99974 1.66669H19.9997C20.5464 1.66669 20.9997 2.12002 20.9997 2.66669V16C20.9997 18.0267 19.3597 19.6667 17.3331 19.6667Z" fill="#6A6A6A"/>
<path d="M25.3333 27.6667H24C23.4533 27.6667 23 27.2134 23 26.6667C23 25.7467 22.2533 25 21.3333 25C20.4133 25 19.6666 25.7467 19.6666 26.6667C19.6666 27.2134 19.2133 27.6667 18.6666 27.6667H13.3333C12.7866 27.6667 12.3333 27.2134 12.3333 26.6667C12.3333 25.7467 11.5866 25 10.6666 25C9.74663 25 8.99996 25.7467 8.99996 26.6667C8.99996 27.2134 8.54663 27.6667 7.99996 27.6667H6.66663C3.90663 27.6667 1.66663 25.4267 1.66663 22.6667C1.66663 22.12 2.11996 21.6667 2.66663 21.6667C3.21329 21.6667 3.66663 22.12 3.66663 22.6667C3.66663 24.32 5.01329 25.6667 6.66663 25.6667H7.13326C7.57326 24.1334 8.98663 23 10.6666 23C12.3466 23 13.76 24.1334 14.2 25.6667H17.8133C18.2533 24.1334 19.6666 23 21.3466 23C23.0266 23 24.4399 24.1334 24.8799 25.6667H25.3333C26.9866 25.6667 28.3333 24.32 28.3333 22.6667V19.6667H25.3333C24.0533 19.6667 23 18.6134 23 17.3334V13.3334C23 12.0534 24.04 11 25.3333 11L23.9066 8.50669C23.6133 7.98669 23.0533 7.66669 22.4533 7.66669H21V16C21 18.0267 19.36 19.6667 17.3333 19.6667H16C15.4533 19.6667 15 19.2134 15 18.6667C15 18.12 15.4533 17.6667 16 17.6667H17.3333C18.2533 17.6667 19 16.92 19 16V6.66669C19 6.12002 19.4533 5.66669 20 5.66669H22.4533C23.7733 5.66669 24.9866 6.37337 25.6399 7.52004L27.92 11.5067C28.0933 11.8134 28.0933 12.2 27.92 12.5067C27.7466 12.8134 27.4133 13 27.0533 13H25.3333C25.1466 13 25 13.1467 25 13.3334V17.3334C25 17.52 25.1466 17.6667 25.3333 17.6667H29.3333C29.88 17.6667 30.3333 18.12 30.3333 18.6667V22.6667C30.3333 25.4267 28.0933 27.6667 25.3333 27.6667Z" fill="#6A6A6A"/>
<path d="M10.6667 30.3333C8.64 30.3333 7 28.6933 7 26.6667C7 24.64 8.64 23 10.6667 23C12.6933 23 14.3333 24.64 14.3333 26.6667C14.3333 28.6933 12.6933 30.3333 10.6667 30.3333ZM10.6667 25C9.74667 25 9 25.7467 9 26.6667C9 27.5867 9.74667 28.3333 10.6667 28.3333C11.5867 28.3333 12.3333 27.5867 12.3333 26.6667C12.3333 25.7467 11.5867 25 10.6667 25Z" fill="#6A6A6A"/>
<path d="M21.3333 30.3333C19.3066 30.3333 17.6666 28.6933 17.6666 26.6667C17.6666 24.64 19.3066 23 21.3333 23C23.36 23 25 24.64 25 26.6667C25 28.6933 23.36 30.3333 21.3333 30.3333ZM21.3333 25C20.4133 25 19.6666 25.7467 19.6666 26.6667C19.6666 27.5867 20.4133 28.3333 21.3333 28.3333C22.2533 28.3333 23 27.5867 23 26.6667C23 25.7467 22.2533 25 21.3333 25Z" fill="#6A6A6A"/>
<path d="M29.3333 19.6667H25.3333C24.0533 19.6667 23 18.6133 23 17.3333V13.3333C23 12.0533 24.0533 11 25.3333 11H27.0533C27.4133 11 27.7467 11.1867 27.92 11.5067L30.2 15.5067C30.28 15.6533 30.3333 15.8267 30.3333 16V18.6667C30.3333 19.2133 29.88 19.6667 29.3333 19.6667ZM25.3333 13C25.1467 13 25 13.1467 25 13.3333V17.3333C25 17.52 25.1467 17.6667 25.3333 17.6667H28.3333V16.2667L26.4666 13H25.3333Z" fill="#6A6A6A"/>
<path d="M10.6666 11.6667H2.66663C2.11996 11.6667 1.66663 11.2134 1.66663 10.6667C1.66663 10.12 2.11996 9.66669 2.66663 9.66669H10.6666C11.2133 9.66669 11.6666 10.12 11.6666 10.6667C11.6666 11.2134 11.2133 11.6667 10.6666 11.6667Z" fill="#6A6A6A"/>
<path d="M7.99996 15.6667H2.66663C2.11996 15.6667 1.66663 15.2134 1.66663 14.6667C1.66663 14.12 2.11996 13.6667 2.66663 13.6667H7.99996C8.54663 13.6667 8.99996 14.12 8.99996 14.6667C8.99996 15.2134 8.54663 15.6667 7.99996 15.6667Z" fill="#6A6A6A"/>
<path d="M5.33329 19.6667H2.66663C2.11996 19.6667 1.66663 19.2134 1.66663 18.6667C1.66663 18.12 2.11996 17.6667 2.66663 17.6667H5.33329C5.87996 17.6667 6.33329 18.12 6.33329 18.6667C6.33329 19.2134 5.87996 19.6667 5.33329 19.6667Z" fill="#6A6A6A"/>
</svg>
