<svg width="1212" height="489" viewBox="0 0 1212 489" fill="none" xmlns="http://www.w3.org/2000/svg">
<path d="M606 0C1016.35 0 1349 332.429 1349 742.5C1349 1152.57 1016.35 1485 606 1485C195.652 1485 -137 1152.57 -137 742.5C-137 332.429 195.652 0 606 0ZM606 0.5C195.928 0.5 -136.5 332.705 -136.5 742.5C-136.5 1152.29 195.928 1484.5 606 1484.5C1016.07 1484.5 1348.5 1152.29 1348.5 742.5C1348.5 332.705 1016.07 0.5 606 0.5ZM606 56C985.42 56 1293 363.357 1293 742.5C1293 1121.64 985.42 1429 606 1429C226.58 1429 -81 1121.64 -81 742.5C-81 363.357 226.58 56 606 56ZM606 56.5C226.856 56.5 -80.5 363.633 -80.5 742.5C-80.5 1121.37 226.856 1428.5 606 1428.5C985.144 1428.5 1292.5 1121.37 1292.5 742.5C1292.5 363.633 985.144 56.5 606 56.5ZM606 112C954.492 112 1237 394.284 1237 742.5C1237 1090.72 954.492 1373 606 1373C257.508 1373 -25 1090.72 -25 742.5C-25 394.284 257.508 112 606 112ZM606 112.5C257.784 112.5 -24.5 394.561 -24.5 742.5C-24.5 1090.44 257.784 1372.5 606 1372.5C954.216 1372.5 1236.5 1090.44 1236.5 742.5C1236.5 394.561 954.216 112.5 606 112.5ZM606 168C923.564 168 1181 425.212 1181 742.5C1181 1059.79 923.564 1317 606 1317C288.436 1317 31 1059.79 31 742.5C31 425.212 288.436 168 606 168ZM606 168.5C288.712 168.5 31.5 425.489 31.5 742.5C31.5 1059.51 288.712 1316.5 606 1316.5C923.288 1316.5 1180.5 1059.51 1180.5 742.5C1180.5 425.489 923.288 168.5 606 168.5Z" fill="url(#paint0_linear_164_91)"/>
<defs>
<linearGradient id="paint0_linear_164_91" x1="606" y1="424.593" x2="605.867" y2="-487.5" gradientUnits="userSpaceOnUse">
<stop stop-color="#FFDA6A"/>
<stop offset="1" stop-color="white" stop-opacity="0"/>
</linearGradient>
</defs>
</svg>
